<svg width="120" height="120" viewBox="0 0 120 120" xmlns="http://www.w3.org/2000/svg">
  <!-- Art Deco Amusements Icon -->
  <circle cx="60" cy="60" r="58" fill="#14213d" stroke="#d4af37" stroke-width="2"/>
  <g stroke="#d4af37" stroke-width="0.5" opacity="0.7">
    <line x1="60" y1="60" x2="60" y2="2" />
    <line x1="60" y1="60" x2="105" y2="15" />
    <line x1="60" y1="60" x2="118" y2="60" />
    <line x1="60" y1="60" x2="105" y2="105" />
    <line x1="60" y1="60" x2="60" y2="118" />
    <line x1="60" y1="60" x2="15" y2="105" />
    <line x1="60" y1="60" x2="2" y2="60" />
    <line x1="60" y1="60" x2="15" y2="15" />
  </g>
  <circle cx="60" cy="60" r="45" fill="none" stroke="#d4af37" stroke-width="1"/>
  
  <!-- Stylized Game Controller -->
  <g fill="#d4af37">
    <!-- Game controller body -->
    <path d="M35 50 C35 45, 40 40, 50 40 L70 40 C80 40, 85 45, 85 50 L85 70 C85 75, 80 80, 70 80 L50 80 C40 80, 35 75, 35 70 Z" fill="none" stroke="#d4af37" stroke-width="2"/>
    
    <!-- D-pad -->
    <rect x="45" y="55" width="10" height="10" fill="#d4af37"/>
    <rect x="42" y="58" width="16" height="4" fill="#d4af37"/>
    <rect x="48" y="52" width="4" height="16" fill="#d4af37"/>
    
    <!-- Buttons -->
    <circle cx="75" cy="55" r="4" fill="#d4af37"/>
    <circle cx="75" cy="65" r="4" fill="#d4af37"/>
    <circle cx="70" cy="60" r="4" fill="#d4af37"/>
    <circle cx="80" cy="60" r="4" fill="#d4af37"/>
  </g>
  
  <g fill="#d4af37">
    <rect x="10" y="10" width="8" height="8" />
    <rect x="102" y="10" width="8" height="8" />
    <rect x="10" y="102" width="8" height="8" />
    <rect x="102" y="102" width="8" height="8" />
  </g>
  <circle cx="30" cy="30" r="3" fill="#d4af37"/>
  <circle cx="90" cy="30" r="3" fill="#d4af37"/>
  <circle cx="30" cy="90" r="3" fill="#d4af37"/>
  <circle cx="90" cy="90" r="3" fill="#d4af37"/>
</svg>