<svg width="120" height="120" viewBox="0 0 120 120" xmlns="http://www.w3.org/2000/svg">
  <!-- Art Deco Creation Engine Icon -->
  <circle cx="60" cy="60" r="58" fill="#14213d" stroke="#d4af37" stroke-width="2"/>
  <g stroke="#d4af37" stroke-width="0.5" opacity="0.7">
    <line x1="60" y1="60" x2="60" y2="2" />
    <line x1="60" y1="60" x2="105" y2="15" />
    <line x1="60" y1="60" x2="118" y2="60" />
    <line x1="60" y1="60" x2="105" y2="105" />
    <line x1="60" y1="60" x2="60" y2="118" />
    <line x1="60" y1="60" x2="15" y2="105" />
    <line x1="60" y1="60" x2="2" y2="60" />
    <line x1="60" y1="60" x2="15" y2="15" />
  </g>
  <circle cx="60" cy="60" r="45" fill="none" stroke="#d4af37" stroke-width="1"/>
  
  <!-- Stylized Creation Engine Elements -->
  <g fill="#d4af37">
    <!-- Engine gears -->
    <circle cx="45" cy="45" r="10" fill="none" stroke="#d4af37" stroke-width="2"/>
    <circle cx="45" cy="45" r="5" fill="#d4af37"/>
    <circle cx="75" cy="45" r="10" fill="none" stroke="#d4af37" stroke-width="2"/>
    <circle cx="75" cy="45" r="5" fill="#d4af37"/>
    <circle cx="60" cy="75" r="10" fill="none" stroke="#d4af37" stroke-width="2"/>
    <circle cx="60" cy="75" r="5" fill="#d4af37"/>
    
    <!-- Gear teeth -->
    <g stroke="#d4af37" stroke-width="2">
      <!-- Left gear teeth -->
      <line x1="45" y1="35" x2="45" y2="30" />
      <line x1="39" y1="39" x2="35" y2="35" />
      <line x1="35" y1="45" x2="30" y2="45" />
      <line x1="39" y1="51" x2="35" y2="55" />
      <line x1="45" y1="55" x2="45" y2="60" />
      <line x1="51" y1="51" x2="55" y2="55" />
      <line x1="55" y1="45" x2="60" y2="45" />
      <line x1="51" y1="39" x2="55" y2="35" />
      
      <!-- Right gear teeth -->
      <line x1="75" y1="35" x2="75" y2="30" />
      <line x1="69" y1="39" x2="65" y2="35" />
      <line x1="65" y1="45" x2="60" y2="45" />
      <line x1="69" y1="51" x2="65" y2="55" />
      <line x1="75" y1="55" x2="75" y2="60" />
      <line x1="81" y1="51" x2="85" y2="55" />
      <line x1="85" y1="45" x2="90" y2="45" />
      <line x1="81" y1="39" x2="85" y2="35" />
      
      <!-- Bottom gear teeth -->
      <line x1="60" y1="65" x2="60" y2="60" />
      <line x1="54" y1="69" x2="50" y2="65" />
      <line x1="50" y1="75" x2="45" y2="75" />
      <line x1="54" y1="81" x2="50" y2="85" />
      <line x1="60" y1="85" x2="60" y2="90" />
      <line x1="66" y1="81" x2="70" y2="85" />
      <line x1="70" y1="75" x2="75" y2="75" />
      <line x1="66" y1="69" x2="70" y2="65" />
    </g>
    
    <!-- Connecting rods between gears -->
    <line x1="52" y1="45" x2="68" y2="45" stroke="#d4af37" stroke-width="1"/>
    <line x1="49" y1="54" x2="56" y2="68" stroke="#d4af37" stroke-width="1"/>
    <line x1="71" y1="54" x2="64" y2="68" stroke="#d4af37" stroke-width="1"/>
    
    <!-- Mountain/landscape (representing game world) -->
    <polygon points="35,85 45,75 55,82 65,70 75,80 85,85" fill="none" stroke="#d4af37" stroke-width="1.5"/>
    
    <!-- Small decorative elements -->
    <circle cx="45" cy="45" r="2" fill="#14213d"/>
    <circle cx="75" cy="45" r="2" fill="#14213d"/>
    <circle cx="60" cy="75" r="2" fill="#14213d"/>
  </g>
  
  <g fill="#d4af37">
    <rect x="10" y="10" width="8" height="8" />
    <rect x="102" y="10" width="8" height="8" />
    <rect x="10" y="102" width="8" height="8" />
    <rect x="102" y="102" width="8" height="8" />
  </g>
  <circle cx="30" cy="30" r="3" fill="#d4af37"/>
  <circle cx="90" cy="30" r="3" fill="#d4af37"/>
  <circle cx="30" cy="90" r="3" fill="#d4af37"/>
  <circle cx="90" cy="90" r="3" fill="#d4af37"/>
</svg>