<svg width="120" height="120" viewBox="0 0 120 120" xmlns="http://www.w3.org/2000/svg">
  <!-- Art Deco CSS Icon -->
  <circle cx="60" cy="60" r="58" fill="#14213d" stroke="#d4af37" stroke-width="2"/>
  <g stroke="#d4af37" stroke-width="0.5" opacity="0.7">
    <line x1="60" y1="60" x2="60" y2="2" />
    <line x1="60" y1="60" x2="105" y2="15" />
    <line x1="60" y1="60" x2="118" y2="60" />
    <line x1="60" y1="60" x2="105" y2="105" />
    <line x1="60" y1="60" x2="60" y2="118" />
    <line x1="60" y1="60" x2="15" y2="105" />
    <line x1="60" y1="60" x2="2" y2="60" />
    <line x1="60" y1="60" x2="15" y2="15" />
  </g>
  <circle cx="60" cy="60" r="45" fill="none" stroke="#d4af37" stroke-width="1"/>
  
  <!-- Stylized CSS Shield -->
  <g fill="#d4af37">
    <!-- CSS Shield -->
    <path d="M40 35 L35 85 L60 90 L85 85 L80 35 Z" fill="none" stroke="#d4af37" stroke-width="2"/>
    
    <!-- CSS Text -->
    <path d="M50 45 C45 45, 45 50, 50 50 L55 50 C60 50, 60 55, 55 55 L50 55 L50 60 L55 60 C60 60, 60 65, 55 65 L50 65 C45 65, 45 70, 50 70 L55 70 L55 65" fill="none" stroke="#d4af37" stroke-width="2"/> <!-- C -->
    <path d="M65 45 C60 45, 60 50, 65 50 L70 50 C75 50, 75 55, 70 55 L65 55 C60 55, 60 60, 65 60 L70 60 C75 60, 75 65, 70 65 L65 65 C60 65, 60 70, 65 70 L70 70 L70 65" fill="none" stroke="#d4af37" stroke-width="2"/> <!-- S -->
    <path d="M80 45 C75 45, 75 50, 80 50 L85 50 C90 50, 90 55, 85 55 L80 55 C75 55, 75 60, 80 60 L85 60 C90 60, 90 65, 85 65 L80 65 C75 65, 75 70, 80 70 L85 70 L85 65" fill="none" stroke="#d4af37" stroke-width="2"/> <!-- S -->
    
    <!-- Decorative elements -->
    <circle cx="60" cy="75" r="2" fill="#d4af37"/>
    <rect x="50" y="80" width="20" height="2" fill="#d4af37"/>
  </g>
  
  <g fill="#d4af37">
    <rect x="10" y="10" width="8" height="8" />
    <rect x="102" y="10" width="8" height="8" />
    <rect x="10" y="102" width="8" height="8" />
    <rect x="102" y="102" width="8" height="8" />
  </g>
  <circle cx="30" cy="30" r="3" fill="#d4af37"/>
  <circle cx="90" cy="30" r="3" fill="#d4af37"/>
  <circle cx="30" cy="90" r="3" fill="#d4af37"/>
  <circle cx="90" cy="90" r="3" fill="#d4af37"/>
</svg>