

<svg width="120" height="120" viewBox="0 0 120 120" xmlns="http://www.w3.org/2000/svg">
  <!-- Art Deco Icon Background Template -->
  
  <!-- Main background circle -->
  <circle cx="60" cy="60" r="58" fill="#14213d" stroke="#d4af37" stroke-width="2"/>
  
  <!-- Radiating lines pattern -->
  <g stroke="#d4af37" stroke-width="0.5" opacity="0.7">
    <line x1="60" y1="60" x2="60" y2="2" />
    <line x1="60" y1="60" x2="105" y2="15" />
    <line x1="60" y1="60" x2="118" y2="60" />
    <line x1="60" y1="60" x2="105" y2="105" />
    <line x1="60" y1="60" x2="60" y2="118" />
    <line x1="60" y1="60" x2="15" y2="105" />
    <line x1="60" y1="60" x2="2" y2="60" />
    <line x1="60" y1="60" x2="15" y2="15" />
  </g>
  
  <!-- Decorative inner circle -->
  <circle cx="60" cy="60" r="45" fill="none" stroke="#d4af37" stroke-width="1"/>
  
  <!-- Envelope Icon -->
  <g>
    <!-- Envelope body -->
    <rect x="35" y="45" width="50" height="35" fill="none" stroke="#d4af37" stroke-width="2"/>
    
    <!-- Envelope flap -->
    <path d="M35,45 L60,60 L85,45" fill="none" stroke="#d4af37" stroke-width="2"/>
    
    <!-- Envelope bottom fold lines -->
    <path d="M35,80 L60,65 L85,80" fill="none" stroke="#d4af37" stroke-width="2"/>
  </g>
  
  <!-- Art Deco decorative corner elements -->
  <g fill="#d4af37">
    <rect x="10" y="10" width="8" height="8" />
    <rect x="102" y="10" width="8" height="8" />
    <rect x="10" y="102" width="8" height="8" />
    <rect x="102" y="102" width="8" height="8" />
  </g>
  
  <!-- Small decorative circles -->
  <circle cx="30" cy="30" r="3" fill="#d4af37"/>
  <circle cx="90" cy="30" r="3" fill="#d4af37"/>
  <circle cx="30" cy="90" r="3" fill="#d4af37"/>
  <circle cx="90" cy="90" r="3" fill="#d4af37"/>
</svg>



