<svg width="120" height="120" viewBox="0 0 120 120" xmlns="http://www.w3.org/2000/svg">
  <!-- Art Deco LinkedIn Icon -->
  
  <!-- Background circle with geometric pattern -->
  <circle cx="60" cy="60" r="58" fill="#14213d" stroke="#d4af37" stroke-width="2"/>
  
  <!-- Radiating lines in background -->
  <g stroke="#d4af37" stroke-width="0.5" opacity="0.7">
    <line x1="60" y1="60" x2="60" y2="2" />
    <line x1="60" y1="60" x2="105" y2="15" />
    <line x1="60" y1="60" x2="118" y2="60" />
    <line x1="60" y1="60" x2="105" y2="105" />
    <line x1="60" y1="60" x2="60" y2="118" />
    <line x1="60" y1="60" x2="15" y2="105" />
    <line x1="60" y1="60" x2="2" y2="60" />
    <line x1="60" y1="60" x2="15" y2="15" />
  </g>
  
  <!-- Decorative inner circle -->
  <circle cx="60" cy="60" r="45" fill="none" stroke="#d4af37" stroke-width="1"/>
  
  <!-- Stylized LinkedIn logo -->
  <g fill="#d4af37">
    <!-- The "in" square -->
    <rect x="38" y="38" width="44" height="44" rx="4" ry="4" />
    
    <!-- The "L" -->
    <rect x="45" y="52" width="6" height="22" />
    <circle cx="48" cy="46" r="4" />
    
    <!-- The "I" -->
    <rect x="57" y="52" width="6" height="22" />
    
    <!-- The "N" -->
    <path d="M70 52 L70 74 L76 74 L76 58 C76 55 78 52 82 52 C86 52 86 55 86 58 L86 74 L92 74 L92 56 C92 51 90 46 82 46 C78 46 73 48 70 52 Z" />
  </g>
  
  <!-- Art Deco decorative corner elements -->
  <g fill="#d4af37">
    <rect x="10" y="10" width="8" height="8" />
    <rect x="102" y="10" width="8" height="8" />
    <rect x="10" y="102" width="8" height="8" />
    <rect x="102" y="102" width="8" height="8" />
  </g>
  
  <!-- Small decorative circles -->
  <circle cx="30" cy="30" r="3" fill="#d4af37"/>
  <circle cx="90" cy="30" r="3" fill="#d4af37"/>
  <circle cx="30" cy="90" r="3" fill="#d4af37"/>
  <circle cx="90" cy="90" r="3" fill="#d4af37"/>
</svg>