<svg width="120" height="120" viewBox="0 0 120 120" xmlns="http://www.w3.org/2000/svg">
  <!-- Art Deco Phaser Icon -->
  <circle cx="60" cy="60" r="58" fill="#14213d" stroke="#d4af37" stroke-width="2"/>
  <g stroke="#d4af37" stroke-width="0.5" opacity="0.7">
    <line x1="60" y1="60" x2="60" y2="2" />
    <line x1="60" y1="60" x2="105" y2="15" />
    <line x1="60" y1="60" x2="118" y2="60" />
    <line x1="60" y1="60" x2="105" y2="105" />
    <line x1="60" y1="60" x2="60" y2="118" />
    <line x1="60" y1="60" x2="15" y2="105" />
    <line x1="60" y1="60" x2="2" y2="60" />
    <line x1="60" y1="60" x2="15" y2="15" />
  </g>
  <circle cx="60" cy="60" r="45" fill="none" stroke="#d4af37" stroke-width="1"/>
  
  <!-- Stylized Phaser Game Element -->
  <g fill="#d4af37">
    <!-- Game world frame -->
    <rect x="35" y="35" width="50" height="50" fill="none" stroke="#d4af37" stroke-width="2"/>
    
    <!-- Phaser ray gun -->
    <path d="M45 50 L75 50 L80 55 L80 65 L75 70 L45 70 L40 60 Z" fill="none" stroke="#d4af37" stroke-width="2"/>
    <rect x="45" y="52" width="10" height="16" fill="#d4af37"/>
    <rect x="80" y="57" width="5" height="6" fill="#d4af37"/>
    
    <!-- Energy beam -->
    <path d="M85 60 L95 60 L97 58 L99 62 L101 56 L103 64 L105 60" stroke="#d4af37" stroke-width="1" fill="none"/>
    
    <!-- Game elements -->
    <circle cx="65" cy="45" r="3" fill="#d4af37"/>
    <rect x="70" y="75" width="5" height="5" fill="#d4af37"/>
    <polygon points="40,40 45,45 40,45" fill="#d4af37"/>
  </g>
  
  <g fill="#d4af37">
    <rect x="10" y="10" width="8" height="8" />
    <rect x="102" y="10" width="8" height="8" />
    <rect x="10" y="102" width="8" height="8" />
    <rect x="102" y="102" width="8" height="8" />
  </g>
  <circle cx="30" cy="30" r="3" fill="#d4af37"/>
  <circle cx="90" cy="30" r="3" fill="#d4af37"/>
  <circle cx="30" cy="90" r="3" fill="#d4af37"/>
  <circle cx="90" cy="90" r="3" fill="#d4af37"/>
</svg>