<svg width="120" height="120" viewBox="0 0 120 120" xmlns="http://www.w3.org/2000/svg">
  <!-- Art Deco Videos Icon -->
  <circle cx="60" cy="60" r="58" fill="#14213d" stroke="#d4af37" stroke-width="2"/>
  <g stroke="#d4af37" stroke-width="0.5" opacity="0.7">
    <line x1="60" y1="60" x2="60" y2="2" />
    <line x1="60" y1="60" x2="105" y2="15" />
    <line x1="60" y1="60" x2="118" y2="60" />
    <line x1="60" y1="60" x2="105" y2="105" />
    <line x1="60" y1="60" x2="60" y2="118" />
    <line x1="60" y1="60" x2="15" y2="105" />
    <line x1="60" y1="60" x2="2" y2="60" />
    <line x1="60" y1="60" x2="15" y2="15" />
  </g>
  <circle cx="60" cy="60" r="45" fill="none" stroke="#d4af37" stroke-width="1"/>
  
  <!-- Stylized Film Camera -->
  <g fill="#d4af37">
    <!-- Camera body -->
    <rect x="35" y="45" width="40" height="30" rx="2" ry="2" fill="none" stroke="#d4af37" stroke-width="2"/>
    
    <!-- Camera lens -->
    <circle cx="55" cy="60" r="12" fill="none" stroke="#d4af37" stroke-width="2"/>
    <circle cx="55" cy="60" r="8" fill="none" stroke="#d4af37" stroke-width="1"/>
    <circle cx="55" cy="60" r="4" fill="#d4af37"/>
    
    <!-- Film reel -->
    <circle cx="85" cy="50" r="10" fill="none" stroke="#d4af37" stroke-width="2"/>
    <circle cx="85" cy="50" r="3" fill="#d4af37"/>
    <circle cx="85" cy="70" r="10" fill="none" stroke="#d4af37" stroke-width="2"/>
    <circle cx="85" cy="70" r="3" fill="#d4af37"/>
    
    <!-- Film strip connecting reels -->
    <rect x="75" y="50" width="20" height="20" fill="none" stroke="#d4af37" stroke-width="1"/>
    <line x1="75" y1="55" x2="95" y2="55" stroke="#d4af37" stroke-width="1"/>
    <line x1="75" y1="60" x2="95" y2="60" stroke="#d4af37" stroke-width="1"/>
    <line x1="75" y1="65" x2="95" y2="65" stroke="#d4af37" stroke-width="1"/>
  </g>
  
  <g fill="#d4af37">
    <rect x="10" y="10" width="8" height="8" />
    <rect x="102" y="10" width="8" height="8" />
    <rect x="10" y="102" width="8" height="8" />
    <rect x="102" y="102" width="8" height="8" />
  </g>
  <circle cx="30" cy="30" r="3" fill="#d4af37"/>
  <circle cx="90" cy="30" r="3" fill="#d4af37"/>
  <circle cx="30" cy="90" r="3" fill="#d4af37"/>
  <circle cx="90" cy="90" r="3" fill="#d4af37"/>
</svg>