<svg width="120" height="120" viewBox="0 0 120 120" xmlns="http://www.w3.org/2000/svg">
  <!-- Art Deco Websites Icon -->
  <circle cx="60" cy="60" r="58" fill="#14213d" stroke="#d4af37" stroke-width="2"/>
  <g stroke="#d4af37" stroke-width="0.5" opacity="0.7">
    <line x1="60" y1="60" x2="60" y2="2" />
    <line x1="60" y1="60" x2="105" y2="15" />
    <line x1="60" y1="60" x2="118" y2="60" />
    <line x1="60" y1="60" x2="105" y2="105" />
    <line x1="60" y1="60" x2="60" y2="118" />
    <line x1="60" y1="60" x2="15" y2="105" />
    <line x1="60" y1="60" x2="2" y2="60" />
    <line x1="60" y1="60" x2="15" y2="15" />
  </g>
  <circle cx="60" cy="60" r="45" fill="none" stroke="#d4af37" stroke-width="1"/>
  
  <!-- Stylized Website/Browser Window -->
  <g fill="#d4af37">
    <rect x="35" y="35" width="50" height="50" rx="2" ry="2" fill="none" stroke="#d4af37" stroke-width="2"/>
    <rect x="35" y="35" width="50" height="10" fill="#d4af37"/>
    <circle cx="40" cy="40" r="2" fill="#14213d"/>
    <circle cx="45" cy="40" r="2" fill="#14213d"/>
    <circle cx="50" cy="40" r="2" fill="#14213d"/>
    
    <!-- Stylized content lines -->
    <rect x="40" y="50" width="40" height="2" fill="#d4af37"/>
    <rect x="40" y="55" width="30" height="2" fill="#d4af37"/>
    <rect x="40" y="60" width="40" height="2" fill="#d4af37"/>
    <rect x="40" y="65" width="20" height="2" fill="#d4af37"/>
    <rect x="40" y="70" width="35" height="2" fill="#d4af37"/>
    <rect x="40" y="75" width="25" height="2" fill="#d4af37"/>
  </g>
  
  <g fill="#d4af37">
    <rect x="10" y="10" width="8" height="8" />
    <rect x="102" y="10" width="8" height="8" />
    <rect x="10" y="102" width="8" height="8" />
    <rect x="102" y="102" width="8" height="8" />
  </g>
  <circle cx="30" cy="30" r="3" fill="#d4af37"/>
  <circle cx="90" cy="30" r="3" fill="#d4af37"/>
  <circle cx="30" cy="90" r="3" fill="#d4af37"/>
  <circle cx="90" cy="90" r="3" fill="#d4af37"/>
</svg>